# xmcd CD database file
#
# Track frame offsets:
#	150
#	13260
#	27070
#	40115
#	52720
#	67135
#	80107
#	90707
#	102575
#	117127
#	130452
#	144012
#	158232
#	172577
#	183980
#	195632
#	206177
#	218330
#	230670
#	243735
#	255880
#	292622
#	306037
#	318480
#
# Disc length: 4409 seconds
#
# Revision: 2
# Processed by: cddbd v1.5.2PL0 Copyright (c) Steve Scherf et al.
# Submitted via: CDex 1.51
#
DISCID=44113718
DTITLE=Errol Garner - Vol. 103 - Pastel
DYEAR=1960
DGENRE=Jazz
TTITLE0=Pastel
TTITLE1=Trio
TTITLE2=Frankie And Johnny Fantasy
TTITLE3=Misty
TTITLE4=Play Piano Play
TTITLE5=Turquoise
TTITLE6=This Can't Be Love
TTITLE7=Moonglow
TTITLE8=Impressions
TTITLE9=Confessin'
TTITLE10=Blue And Sentimental
TTITLE11=I Can't Give You Anything But Love
TTITLE12=The Way You Look Tonight
TTITLE13=She's Funny That Way
TTITLE14=I Can't Believe That You're In Love With Me
TTITLE15=Cool Blues
TTITLE16=Bird's Nest
TTITLE17=Stardust
TTITLE18=Frantonality
TTITLE19=Undecided
TTITLE20=The Man I Love
TTITLE21=Body And Soul
TTITLE22=More Than You Know
TTITLE23=Laura
EXTD=YEAR: 1960
EXTT0=
EXTT1=
EXTT2=
EXTT3=
EXTT4=
EXTT5=
EXTT6=
EXTT7=
EXTT8=
EXTT9=
EXTT10=
EXTT11=
EXTT12=
EXTT13=
EXTT14=
EXTT15=
EXTT16=
EXTT17=
EXTT18=
EXTT19=
EXTT20=
EXTT21=
EXTT22=
EXTT23=
PLAYORDER=
